<?xml version="1.0" encoding="utf-8"?>
<!-- Generator: Adobe Illustrator 24.1.1, SVG Export Plug-In . SVG Version: 6.00 Build 0)  -->
<svg version="1.1" id="Capa_1" xmlns="http://www.w3.org/2000/svg" xmlns:xlink="http://www.w3.org/1999/xlink" x="0px" y="0px"
	 viewBox="0 0 493.3 493.3" style="enable-background:new 0 0 493.3 493.3;" xml:space="preserve">
<style type="text/css">
	.st0{fill:#1766B0;}
</style>
<g id="XMLID_78_">
	<g id="XMLID_79_">
		<g id="XMLID_80_">
			<path id="XMLID_81_" class="st0" d="M352.7,451c3,9.8-2,20.2-11.6,23.9c-35.8,13.7-69.3,18.5-112.9,18.5
				C110.6,493.3,7.1,409,7.1,270.1C7.1,125.5,112,0,272.2,0c124.7,0,214,85.8,214,204.8c0,103.5-58.1,168.7-134.7,168.7
				c-33.3,0-57.4-17-61-54.6h-1.4c-22,36.1-53.9,54.6-91.4,54.6c-46.1,0-79.4-34-79.4-92.1c0-86.5,63.8-165.1,165.8-165.1
				c18.7,0,38.9,2.8,55.9,7.2c16.4,4.2,26.9,20.2,24.1,37l-17,104.7c-7.1,41.8-2.1,61,17.7,61.7c30.5,0.7,68.8-38.3,68.8-119.8
				c0-92.2-59.5-163.7-169.4-163.7C155.9,43.2,61,128.3,61,263.7c0,118.4,75.8,185.7,181.4,185.7c27.5,0,56.2-4.5,80.9-13.2
				c5.9-2.1,12.3-1.7,17.9,1.1C346.7,440.1,350.9,445,352.7,451L352.7,451z M294,181.4c0.5-3.6-1.9-7-5.5-7.7
				c-4.4-0.8-9.5-1.4-15.6-1.4c-46.8,0-83.6,46.1-83.6,100.7c0,26.9,12,43.9,35.4,43.9c26.2,0,53.9-33.3,60.3-74.4L294,181.4z"/>
		</g>
	</g>
</g>
</svg>
