<?xml version="1.0" encoding="utf-8"?>
<!-- Generator: Adobe Illustrator 24.1.1, SVG Export Plug-In . SVG Version: 6.00 Build 0)  -->
<svg version="1.1" id="Livello_1" xmlns="http://www.w3.org/2000/svg" xmlns:xlink="http://www.w3.org/1999/xlink" x="0px" y="0px"
	 viewBox="0 0 512 512" style="enable-background:new 0 0 512 512;" xml:space="preserve">
<style type="text/css">
	.st0{fill:#0A66B0;}
</style>
<path class="st0" d="M482,206h-10v-45c0-22.1-17.9-40-40-40c-7.7,0-14.9,2.2-21,6c-4.1-17.7-20-31-39-31h0c-22,0-40,17.9-40,40v70
	H180v-70c0-22.1-18-40-40-40c-18.9,0-34.9,13.3-39,31c-6.1-3.8-13.3-6-21-6c-22.1,0-40,17.9-40,40v45H30c-16.5,0-30,13.5-30,30v40
	c0,16.5,13.5,30,30,30h10v45c0,22.1,17.9,40,40,40c7.7,0,14.9-2.2,21-6c4.1,17.7,20,31,39,31h0c22,0,40-17.9,40-40v-70h152v70
	c0,22.1,18,40,40,40c18.9,0,34.9-13.3,39-31c6.1,3.8,13.3,6,21,6c22.1,0,40-17.9,40-40v-45h10c16.5,0,30-13.5,30-30v-40
	C512,219.5,498.5,206,482,206z M40,286H30c-5.5,0-10-4.5-10-10v-40c0-5.5,4.5-10,10-10h10V286z M100,351c0,5.5-2.2,10.5-5.9,14.1
	S85.5,371,80,371c-11,0-20-9-20-20V161c0-11,9-20,20-20s20,9,20,20V351z M160,376c0,11-9,20-20,20h0c-11,0-20-9-20-20V136
	c0-11,9-20,20-20c11,0,20,9,20,20V376z M331.9,246H262c-5.5,0-10,4.5-10,10s4.5,10,10,10h69.9v20H180v-60h152V246z M392,376
	c0,11-9,20-20,20c-11,0-20-9-20-20V256.5c0,0.2,0,0.4-0.1,0.6v-2.3c0,0.2,0.1,0.4,0.1,0.6V136c0-11,9-20,20-20h0c11,0,20,9,20,20
	V376z M452,351c0,11-9,20-20,20s-20-9-20-20V161c0-11,9-20,20-20s20,9,20,20V351z M492,276c0,5.5-4.5,10-10,10h-10v-60h10
	c5.5,0,10,4.5,10,10V276z"/>
<path class="st0" d="M222,266c-5.5,0-10-4.5-10-10s4.5-10,10-10h0c5.5,0,10,4.5,10,10S227.5,266,222,266z"/>
</svg>
