<?xml version="1.0" encoding="iso-8859-1"?>
<!-- Generator: Adobe Illustrator 19.0.0, SVG Export Plug-In . SVG Version: 6.00 Build 0)  -->
<svg version="1.1" id="Capa_1" xmlns="http://www.w3.org/2000/svg" xmlns:xlink="http://www.w3.org/1999/xlink" x="0px" y="0px"
	 viewBox="0 0 496 496" style="enable-background:new 0 0 496 496;" xml:space="preserve">
<g>
	<g>
		<g>
			<path d="M447.82,390.192c-5.376-32.232-27.976-58.68-58.976-69.016l-68.84-22.944V288h-16v15.024l-11.936,47.752L259.756,312
				h-23.504l-32.312,38.776l-11.936-47.752V288h-16v10.232l-68.832,22.944c-31,10.336-53.6,36.784-58.976,69.016L30.556,496h434.888
				L447.82,390.192z M256.004,480V352h-16v128h-119.16l7.12-71.2l-15.92-1.592l-7.28,72.8H49.452l14.52-87.176
				c4.4-26.376,22.888-48.008,48.256-56.472l47.776-15.928v72.704c-13.768,3.576-24,16-24,30.864c0,17.648,14.352,32,32,32
				s32-14.352,32-32c0-14.864-10.232-27.288-24-30.864v-78.04l2.336-0.776l17.728,70.904L243.756,328h8.496l47.688,57.224
				l17.728-70.904l2.336,0.776v63.952l-30.312,15.16c-10.904,5.456-17.688,16.424-17.688,28.624V432c0,17.648,14.352,32,32,32h8v-16
				h-8c-8.824,0-16-7.176-16-16v-9.168c0-6.096,3.392-11.584,8.84-14.312l31.16-15.576l31.16,15.576
				c5.448,2.728,8.84,8.216,8.84,14.312V432c0,8.824-7.176,16-16,16h-8v16h8c7.968,0,15.168-3.032,20.776-7.864L375.164,480H256.004
				z M168.004,408c8.824,0,16,7.176,16,16c0,8.824-7.176,16-16,16c-8.824,0-16-7.176-16-16C152.004,415.176,159.18,408,168.004,408z
				 M391.244,480l-7.28-72.8l-3.872,0.384c-3.064-5.648-7.76-10.368-13.776-13.376l-30.312-15.152v-58.624l47.776,15.928
				c25.368,8.456,43.856,30.096,48.256,56.472L446.556,480H391.244z"/>
			<path d="M147.54,215.552c4.08,14.04,11.616,26.912,22.24,37.536l31.192,31.2c7.552,7.552,17.6,11.712,28.288,11.712h37.488
				c10.688,0,20.736-4.16,28.288-11.712l31.192-31.2c10.624-10.624,18.152-23.504,22.24-37.536
				c19.936-2.256,35.536-19.024,35.536-39.552c0-13.128-6.448-24.704-16.248-32h0.248v-24c0-66.168-53.832-120-120-120
				s-120,53.832-120,120v24h0.248c-9.8,7.296-16.248,18.872-16.248,32C112.004,196.528,127.604,213.296,147.54,215.552z
				 M336.004,190.864c0,19.232-7.496,37.312-21.088,50.912l-31.192,31.2c-4.536,4.528-10.56,7.024-16.976,7.024H229.26
				c-6.416,0-12.448-2.496-16.976-7.024l-31.192-31.2c-13.592-13.6-21.088-31.68-21.088-50.912V152h59.16
				c18.704,0,36.856-5.008,52.84-14.544c15.984,9.536,34.144,14.544,52.84,14.544h11.16V190.864z M368.004,176
				c0,10.552-6.896,19.44-16.376,22.64c0.224-2.568,0.376-5.16,0.376-7.776v-37.392C361.292,156.784,368.004,165.584,368.004,176z
				 M144.004,120c0-57.344,46.656-104,104-104s104,46.656,104,104v16.808c-2.584-0.528-5.264-0.808-8-0.808h-19.16
				c-17.288,0-34.024-5.064-48.408-14.656l-4.432-2.96l-4.44,2.96C253.18,130.936,236.452,136,219.164,136h-67.16
				c-2.736,0-5.416,0.28-8,0.808V120z M144.004,153.472v37.392c0,2.616,0.152,5.208,0.376,7.784
				c-9.48-3.208-16.376-12.096-16.376-22.648C128.004,165.584,134.716,156.784,144.004,153.472z"/>
		</g>
	</g>
</g>
<g>
</g>
<g>
</g>
<g>
</g>
<g>
</g>
<g>
</g>
<g>
</g>
<g>
</g>
<g>
</g>
<g>
</g>
<g>
</g>
<g>
</g>
<g>
</g>
<g>
</g>
<g>
</g>
<g>
</g>
</svg>
