<?xml version="1.0" encoding="utf-8"?>
<!-- Generator: Adobe Illustrator 24.1.1, SVG Export Plug-In . SVG Version: 6.00 Build 0)  -->
<svg version="1.1" id="Layer_1" xmlns="http://www.w3.org/2000/svg" xmlns:xlink="http://www.w3.org/1999/xlink" x="0px" y="0px"
	 viewBox="0 0 512 512" style="enable-background:new 0 0 512 512;" xml:space="preserve">
<style type="text/css">
	.st0{fill:#00679A;}
</style>
<path class="st0" d="M486.3,289.1v180.2c0,23.5-19.1,42.7-42.7,42.7H68.3c-23.5,0-42.7-19.1-42.7-42.7V289.1c0-4.7,3.8-8.5,8.5-8.5
	s8.5,3.8,8.5,8.5v180.2c0,14.1,11.5,25.6,25.6,25.6h375.4c14.1,0,25.6-11.5,25.6-25.6V289.1c0-4.7,3.8-8.5,8.5-8.5
	C482.5,280.5,486.3,284.3,486.3,289.1z M55.5,136.6c0,4.7,3.8,8.5,8.5,8.5c467.7,0,441.2,0.8,444.6-1.8c1.7-1.3,2.9-3.3,3.2-5.6
	c0.5-3.4,3.6,5.2-56.1-132.5c-1.4-3.1-4.4-5.1-7.8-5.1H64c-3.4,0-6.5,2-7.8,5.1l-55.5,128c-1,2.3-0.7-1.3-0.7,56.3
	c0.1,38.8,31.6,70.4,70.4,70.4c26.6,0,49.9-14.9,61.8-36.9c26.7,49,97,49.1,123.7,0c26.7,49,97,49,123.7,0
	c11.9,21.9,35.2,36.8,61.9,36.8c38.8,0,70.4-31.6,70.4-70.4c0-4.7-3.8-8.5-8.5-8.5s-8.5,3.8-8.5,8.5c0,29.4-23.9,53.3-53.3,53.3
	s-53.3-23.9-53.3-53.3c0-4.7-3.8-8.5-8.5-8.5c-4.7,0-8.5,3.8-8.5,8.5c0,29.4-23.9,53.3-53.3,53.3s-53.3-23.9-53.3-53.3
	c0-4.7-3.8-8.5-8.5-8.5c-4.7,0-8.5,3.8-8.5,8.5c0,29.4-23.9,53.3-53.3,53.3c-28.7,0-53.3-23.1-53.3-53.7c0-4.7-3.8-8.5-8.5-8.5
	c-4.7,0-8.5,3.8-8.5,8.5c0,30.4-24.4,53.7-53.3,53.7c-29.4,0-53.3-23.9-53.3-53.3v-51.1L69.6,17.1h372.7L490.4,128H64
	C59.3,128,55.5,131.9,55.5,136.6L55.5,136.6z M89.6,347.7c0-22.1,18-40.1,40.1-40.1s40.1,18,40.1,40.1c0,22.1-18,40.1-40.1,40.1
	C107.6,387.8,89.6,369.8,89.6,347.7z M106.7,347.7c0,12.7,10.3,23,23,23c12.7,0,23-10.3,23-23c0-12.7-10.3-23-23-23
	S106.7,335,106.7,347.7z M203.4,387.8c-4.7,0-8.5-3.8-8.5-8.5v-63.1c0-4.7,3.8-8.5,8.5-8.5h21c16.3,0,29.6,13.3,29.6,29.6
	s-13.3,29.6-29.6,29.6h-12.5v12.5C211.9,384,208.1,387.8,203.4,387.8z M211.9,349.7h12.5c6.9,0,12.5-5.6,12.5-12.5
	s-5.6-12.5-12.5-12.5h-12.5V349.7z M329.6,324.7c4.7,0,8.5-3.8,8.5-8.5c0-4.7-3.8-8.5-8.5-8.5h-42.1c-4.7,0-8.5,3.8-8.5,8.5v63.1
	c0,4.7,3.8,8.5,8.5,8.5h42.1c4.7,0,8.5-3.8,8.5-8.5s-3.8-8.5-8.5-8.5h-33.6v-14.5h20.7c4.7,0,8.5-3.8,8.5-8.5c0-4.7-3.8-8.5-8.5-8.5
	h-20.7v-14.5L329.6,324.7L329.6,324.7z M380.2,379.3v-35l26.5,39.7c4.7,7,15.6,3.7,15.6-4.7v-63.1c0-4.7-3.8-8.5-8.5-8.5
	c-4.7,0-8.5,3.8-8.5,8.5v35l-26.5-39.7c-4.7-7-15.6-3.7-15.6,4.7v63.1c0,4.7,3.8,8.5,8.5,8.5S380.2,384,380.2,379.3z M98.1,445.8
	h315.7c4.7,0,8.5-3.8,8.5-8.5s-3.8-8.5-8.5-8.5H98.1c-4.7,0-8.5,3.8-8.5,8.5S93.4,445.8,98.1,445.8z"/>
</svg>
