<svg xmlns="http://www.w3.org/2000/svg" xmlns:xlink="http://www.w3.org/1999/xlink" viewBox="0 0 452.95 98.22"><defs><linearGradient id="linear-gradient" x1="112.86" y1="68.82" x2="112.86" y2="46.3" gradientUnits="userSpaceOnUse"><stop offset="0" stop-color="#fff" stop-opacity="0.9"/><stop offset="0.1" stop-color="#fff" stop-opacity="0.85"/><stop offset="0.28" stop-color="#fff" stop-opacity="0.71"/><stop offset="0.54" stop-color="#fff" stop-opacity="0.48"/><stop offset="0.84" stop-color="#fff" stop-opacity="0.17"/><stop offset="1" stop-color="#fff" stop-opacity="0"/></linearGradient><linearGradient id="linear-gradient-2" x1="177.41" y1="68.82" x2="177.41" y2="46.3" xlink:href="#linear-gradient"/><linearGradient id="linear-gradient-3" x1="245.13" y1="68.82" x2="245.13" y2="46.3" xlink:href="#linear-gradient"/><linearGradient id="linear-gradient-4" x1="306.07" y1="68.82" x2="306.07" y2="46.3" xlink:href="#linear-gradient"/><linearGradient id="linear-gradient-5" x1="369" y1="68.82" x2="369" y2="46.3" xlink:href="#linear-gradient"/><linearGradient id="linear-gradient-6" x1="433.68" y1="68.82" x2="433.68" y2="46.3" xlink:href="#linear-gradient"/><linearGradient id="linear-gradient-7" x1="-333.71" y1="-785.31" x2="-327.63" y2="-785.31" gradientTransform="translate(-306.48 808.1) rotate(45)" xlink:href="#linear-gradient"/><linearGradient id="linear-gradient-8" x1="45.33" y1="96.18" x2="25.74" y2="54.03" gradientUnits="userSpaceOnUse"><stop offset="0" stop-color="#fff" stop-opacity="0.9"/><stop offset="0.14" stop-color="#fff" stop-opacity="0.7"/><stop offset="0.3" stop-color="#fff" stop-opacity="0.49"/><stop offset="0.46" stop-color="#fff" stop-opacity="0.31"/><stop offset="0.62" stop-color="#fff" stop-opacity="0.18"/><stop offset="0.76" stop-color="#fff" stop-opacity="0.08"/><stop offset="0.89" stop-color="#fff" stop-opacity="0.02"/><stop offset="1" stop-color="#fff" stop-opacity="0"/></linearGradient><linearGradient id="linear-gradient-9" x1="85.81" y1="38.14" x2="46.09" y2="77.85" xlink:href="#linear-gradient"/><linearGradient id="linear-gradient-10" x1="-1496.36" y1="-969.33" x2="-1490.09" y2="-969.33" gradientTransform="translate(-1391.59 1065.96) rotate(111.79)" xlink:href="#linear-gradient"/><linearGradient id="linear-gradient-11" x1="-1934.7" y1="-719.67" x2="-1928.53" y2="-719.67" gradientTransform="translate(-1877.05 747.59) rotate(138.44)" xlink:href="#linear-gradient"/><linearGradient id="Sfumatura_senza_nome_29" x1="43.54" y1="-10.44" x2="28.97" y2="54.08" gradientUnits="userSpaceOnUse"><stop offset="0" stop-color="#fff" stop-opacity="0.9"/><stop offset="0.29" stop-color="#fff" stop-opacity="0.64"/><stop offset="1" stop-color="#fff" stop-opacity="0"/></linearGradient><linearGradient id="linear-gradient-12" x1="-9.3" y1="6.31" x2="25.81" y2="67.45" xlink:href="#linear-gradient"/><linearGradient id="linear-gradient-13" x1="2.18" y1="40.16" x2="36.55" y2="40.16" xlink:href="#linear-gradient"/><linearGradient id="linear-gradient-14" x1="78.88" y1="16.79" x2="30.87" y2="64.81" xlink:href="#linear-gradient"/><linearGradient id="linear-gradient-15" x1="68.78" y1="41.89" x2="39.05" y2="71.62" xlink:href="#linear-gradient"/></defs><g id="Livello_2" data-name="Livello 2"><g id="Livello_29" data-name="Livello 29"><path d="M110.9,65.4,93.8,35.82h7.87l12,21.38,11.42-21.38h6.85L115.66,65.4Z" style="fill:#004a87"/><path d="M162.13,65.4V35.82h30.28v5H169v6.6h13.65v5H169v7.33h23.67V65.4Z" style="fill:#004a87"/><path d="M227.58,65.4V35.82h25.3q3.52,0,5.1,1.36a5.45,5.45,0,0,1,1.59,4.38V48.5A5.46,5.46,0,0,1,258,52.86c-1.05.92-2.75,1.37-5.1,1.37H249L262.67,65.4h-9.88L240.87,54.23h-6.52V65.4Zm22.25-24.46H234.35v8.23h15.48a4.13,4.13,0,0,0,2.45-.52,2.22,2.22,0,0,0,.65-1.83V43.27a2.21,2.21,0,0,0-.65-1.81A4.21,4.21,0,0,0,249.83,40.94Z" style="fill:#004a87"/><path d="M309.48,41.11V65.4H302.6V41.11H289V35.82h34.08v5.29Z" style="fill:#004a87"/><path d="M353.72,65.4V35.82H384v5H360.61v6.6h13.65v5H360.61v7.33h23.67V65.4Z" style="fill:#004a87"/><path d="M414.67,65.4l14-15.2L414.42,35.82h9.12l9.46,10,9-10h7.92L437,49.42,453,65.4H443.6L432.77,53.93l-10,11.47Z" style="fill:#004a87"/><path d="M110.9,65.4,93.8,35.82h7.87l12,21.38,11.42-21.38h6.85L115.66,65.4Z" style="fill:url(#linear-gradient)"/><path d="M162.13,65.4V35.82h30.28v5H169v6.6h13.65v5H169v7.33h23.67V65.4Z" style="fill:url(#linear-gradient-2)"/><path d="M227.58,65.4V35.82h25.3q3.52,0,5.1,1.36a5.45,5.45,0,0,1,1.59,4.38V48.5A5.46,5.46,0,0,1,258,52.86c-1.05.92-2.75,1.37-5.1,1.37H249L262.67,65.4h-9.88L240.87,54.23h-6.52V65.4Zm22.25-24.46H234.35v8.23h15.48a4.13,4.13,0,0,0,2.45-.52,2.22,2.22,0,0,0,.65-1.83V43.27a2.21,2.21,0,0,0-.65-1.81A4.21,4.21,0,0,0,249.83,40.94Z" style="fill:url(#linear-gradient-3)"/><path d="M309.48,41.11V65.4H302.6V41.11H289V35.82h34.08v5.29Z" style="fill:url(#linear-gradient-4)"/><path d="M353.72,65.4V35.82H384v5H360.61v6.6h13.65v5H360.61v7.33h23.67V65.4Z" style="fill:url(#linear-gradient-5)"/><path d="M414.67,65.4l14-15.2L414.42,35.82h9.12l9.46,10,9-10h7.92L437,49.42,453,65.4H443.6L432.77,53.93l-10,11.47Z" style="fill:url(#linear-gradient-6)"/><path d="M162.58,97.48c0-.45-.05-.83-.09-1.16a6.9,6.9,0,0,0,1.33.49A4.58,4.58,0,0,0,165,97a2.58,2.58,0,0,0,1-.18,1.5,1.5,0,0,0,.68-.5,1.3,1.3,0,0,0,.23-.75,1.39,1.39,0,0,0-.08-.46,1.49,1.49,0,0,0-.25-.43,4.5,4.5,0,0,0-.59-.6l-1.2-1-.52-.44c-.19-.17-.37-.33-.53-.5a4,4,0,0,1-.4-.47,2.87,2.87,0,0,1-.25-.42,1.64,1.64,0,0,1-.13-.41,1.8,1.8,0,0,1,0-.46,2.07,2.07,0,0,1,.33-1.13,2.3,2.3,0,0,1,1-.84A4.06,4.06,0,0,1,165.9,88a10.72,10.72,0,0,1,1.91.21,11,11,0,0,0,.1,1.11A5.93,5.93,0,0,0,166,89a2.28,2.28,0,0,0-1,.2,1.51,1.51,0,0,0-.62.51,1.11,1.11,0,0,0-.21.64,1.31,1.31,0,0,0,.23.73,2.87,2.87,0,0,0,.4.49,6.89,6.89,0,0,0,.65.61c.07,0,.34.27.8.66s.81.67,1,.88a4,4,0,0,1,.5.59,2.13,2.13,0,0,1,.3.58,2.09,2.09,0,0,1,.1.67,2.27,2.27,0,0,1-.24,1,2,2,0,0,1-.69.77,3.19,3.19,0,0,1-1,.43,5.5,5.5,0,0,1-1.16.12,6.78,6.78,0,0,1-1-.07A13.28,13.28,0,0,1,162.58,97.48Z" style="fill:#afafaf"/><path d="M170.86,97.73l.12-1.59.22-5.47,0-1.18c0-.18,0-.37,0-.55v-.76h2.42l1,0a5.11,5.11,0,0,1,1.31.13,1.88,1.88,0,0,1,.76.44,2.14,2.14,0,0,1,.52.75,2.64,2.64,0,0,1,.19,1,2.88,2.88,0,0,1-.45,1.58,2.77,2.77,0,0,1-1.22,1,4.21,4.21,0,0,1-1.73.35,6,6,0,0,1-1.12-.12c-.07-.32-.15-.61-.23-.87a5.51,5.51,0,0,0,1.06.1,3.82,3.82,0,0,0,1-.11,2,2,0,0,0,.79-.39,1.71,1.71,0,0,0,.51-.67,2.11,2.11,0,0,0,.18-.86,1.59,1.59,0,0,0-.13-.66,1.07,1.07,0,0,0-.37-.48,1.44,1.44,0,0,0-.53-.25,4.75,4.75,0,0,0-.87-.06h-.58l-.74,0h-.54c-.06,1-.1,2-.12,2.78l-.1,2.88c0,1.09,0,1.82,0,2.19v.79l-.65,0Z" style="fill:#afafaf"/><path d="M184.81,88a6.11,6.11,0,0,1,2,.31,4.13,4.13,0,0,1,1.64,1,4,4,0,0,1,1,1.55,5.64,5.64,0,0,1,.3,1.87,6.24,6.24,0,0,1-.34,2.07,4.24,4.24,0,0,1-1,1.69,4.44,4.44,0,0,1-1.72,1,6.42,6.42,0,0,1-2.15.35,6.65,6.65,0,0,1-2.05-.31,4.37,4.37,0,0,1-1.68-1,3.91,3.91,0,0,1-1-1.54,5.84,5.84,0,0,1-.31-1.88,6.19,6.19,0,0,1,.37-2.1,4.42,4.42,0,0,1,2.85-2.72A7,7,0,0,1,184.81,88Zm-.07.94a4.66,4.66,0,0,0-1.59.27,3.36,3.36,0,0,0-1.31.86,3.86,3.86,0,0,0-.82,1.4,5.28,5.28,0,0,0-.27,1.68,4.71,4.71,0,0,0,.26,1.55,3.1,3.1,0,0,0,2,2,4.84,4.84,0,0,0,1.52.24,4.47,4.47,0,0,0,1.55-.26,3.07,3.07,0,0,0,1.27-.82,3.37,3.37,0,0,0,.8-1.36,5.41,5.41,0,0,0,.26-1.67,5.1,5.1,0,0,0-.24-1.57,3.13,3.13,0,0,0-2-2.06A4.61,4.61,0,0,0,184.74,89Z" style="fill:#afafaf"/><path d="M192.32,97.73l.14-1.88.16-3.48.06-2.93c0-.59,0-1,0-1.26h2.44l1,0a6.22,6.22,0,0,1,1.19.1,2.16,2.16,0,0,1,1,.41,2,2,0,0,1,.62.76,2.3,2.3,0,0,1,.2,1,2.84,2.84,0,0,1-.16,1,2.73,2.73,0,0,1-.46.81,2.42,2.42,0,0,1-.72.59,3.45,3.45,0,0,1-.81.29c-.21,0-.51.09-.88.13l1.23,2,1.27,2c.09.13.22.34.39.61l-.73,0-.74,0-.5-1-.31-.55-.34-.59-1.58-2.58c-.07-.11-.18-.28-.33-.54a6,6,0,0,0,1,.1,3.42,3.42,0,0,0,1.27-.23,1.93,1.93,0,0,0,.89-.72,2.05,2.05,0,0,0,.31-1.08,1.89,1.89,0,0,0-.1-.6,1.25,1.25,0,0,0-.31-.47,1.65,1.65,0,0,0-.42-.27,2.19,2.19,0,0,0-.53-.12,5.09,5.09,0,0,0-.69-.05l-1,0H194c-.15,3.13-.24,6-.27,8.65l-.69,0Z" style="fill:#afafaf"/><path d="M203.46,97.73l.13-2.14.19-4.44.07-2.05q-1.71,0-3,.06c0-.37,0-.7.05-1h7.26c0,.41,0,.74,0,1-.73,0-1.52-.06-2.4-.06h-.58L205,92.2l-.15,4.36v1.17l-.67,0Z" style="fill:#afafaf"/><path d="M214.71,97.73l.12-1.59.22-5.47,0-1.18c0-.18,0-.37,0-.55v-.76h2.43l1,0a5.26,5.26,0,0,1,1.32.13,1.91,1.91,0,0,1,.75.44,2,2,0,0,1,.52.75,2.46,2.46,0,0,1,.19,1,2.88,2.88,0,0,1-.45,1.58,2.71,2.71,0,0,1-1.22,1,4.16,4.16,0,0,1-1.72.35,5.86,5.86,0,0,1-1.12-.12,7.7,7.7,0,0,0-.24-.87,5.58,5.58,0,0,0,1.06.1,3.85,3.85,0,0,0,1-.11,2,2,0,0,0,.78-.39,1.71,1.71,0,0,0,.51-.67,2.11,2.11,0,0,0,.18-.86,1.59,1.59,0,0,0-.13-.66,1.07,1.07,0,0,0-.37-.48,1.37,1.37,0,0,0-.53-.25,4.62,4.62,0,0,0-.86-.06h-.59l-.73,0h-.55c-.05,1-.09,2-.12,2.78l-.09,2.88c0,1.09-.05,1.82-.05,2.19v.79l-.66,0Z" style="fill:#afafaf"/><path d="M223.57,97.73l.17-2.63.2-4.92,0-1.07c0-.27,0-.58,0-.93h6.18c0,.32-.05.65-.06,1l-.63,0-.79,0h-1.12c-1.1,0-1.86,0-2.3,0l-.12,3.27,1.93,0,2.44,0c0,.33-.06.65-.06,1l-2.41,0-2,0-.13,3.46h.73c1.32,0,2.2,0,2.63,0l1.52-.06c0,.35-.06.67-.07,1l-2.84,0Z" style="fill:#afafaf"/><path d="M232.73,97.73l.14-1.88.16-3.48.07-2.93c0-.59,0-1,0-1.26h2.44l.95,0a6.29,6.29,0,0,1,1.19.1,2.16,2.16,0,0,1,1,.41,2,2,0,0,1,.62.76,2.3,2.3,0,0,1,.2,1,3.1,3.1,0,0,1-.16,1,2.73,2.73,0,0,1-.46.81,2.34,2.34,0,0,1-.73.59,3.21,3.21,0,0,1-.8.29c-.21,0-.51.09-.88.13l1.23,2,1.27,2c.09.13.22.34.39.61l-.73,0-.74,0-.51-1-.3-.55-.34-.59-1.59-2.58-.32-.54a6,6,0,0,0,.95.1,3.42,3.42,0,0,0,1.27-.23,1.86,1.86,0,0,0,.88-.72,2,2,0,0,0,.32-1.08,1.89,1.89,0,0,0-.1-.6,1.25,1.25,0,0,0-.31-.47,2.09,2.09,0,0,0-.42-.27,2.19,2.19,0,0,0-.53-.12,5.09,5.09,0,0,0-.69-.05l-1,0h-.82c-.14,3.13-.23,6-.26,8.65l-.69,0Z" style="fill:#afafaf"/><path d="M241.93,97.73l.09-1.28c0-.29,0-.61,0-1l.15-4.16,0-1.68c0-.35,0-.66,0-.93v-.55h5.9c0,.43-.06.76-.06,1-.59,0-1.43-.06-2.5-.06l-2.06,0-.1,3.29,1.34,0q1.9,0,2.76,0c0,.35,0,.66,0,1l-2.18,0-1.94,0c-.05,1.72-.08,3.17-.08,4.36l-.68,0Z" style="fill:#afafaf"/><path d="M255.73,88a6.11,6.11,0,0,1,2,.31,4.2,4.2,0,0,1,1.64,1,4,4,0,0,1,1,1.55,5.64,5.64,0,0,1,.3,1.87,6.24,6.24,0,0,1-.34,2.07,4.35,4.35,0,0,1-1,1.69,4.44,4.44,0,0,1-1.72,1,6.46,6.46,0,0,1-2.15.35,6.72,6.72,0,0,1-2.06-.31,4.4,4.4,0,0,1-1.67-1,3.81,3.81,0,0,1-1-1.54,5.58,5.58,0,0,1-.31-1.88,6,6,0,0,1,.37-2.1,4.42,4.42,0,0,1,2.85-2.72A6.9,6.9,0,0,1,255.73,88Zm-.08.94a4.66,4.66,0,0,0-1.59.27,3.4,3.4,0,0,0-1.3.86,3.89,3.89,0,0,0-.83,1.4,5.57,5.57,0,0,0-.26,1.68,4.47,4.47,0,0,0,.26,1.55,3.32,3.32,0,0,0,.78,1.25,3.25,3.25,0,0,0,1.25.73,4.79,4.79,0,0,0,1.52.24,4.47,4.47,0,0,0,1.55-.26,3.13,3.13,0,0,0,1.27-.82,3.35,3.35,0,0,0,.79-1.36,5.12,5.12,0,0,0,.26-1.67,5.42,5.42,0,0,0-.23-1.57,3.22,3.22,0,0,0-.75-1.28,3,3,0,0,0-1.22-.78A4.62,4.62,0,0,0,255.65,89Z" style="fill:#afafaf"/><path d="M263.23,97.73l.14-1.88.16-3.48.07-2.93c0-.59,0-1,0-1.26h2.44l.95,0a6.29,6.29,0,0,1,1.19.1,2.17,2.17,0,0,1,1.58,1.17,2.3,2.3,0,0,1,.2,1,3.1,3.1,0,0,1-.16,1,3,3,0,0,1-.46.81,2.6,2.6,0,0,1-.73.59,3.21,3.21,0,0,1-.8.29c-.22,0-.51.09-.88.13l1.23,2,1.27,2c.09.13.22.34.39.61l-.73,0-.74,0-.51-1c-.1-.19-.2-.37-.31-.55s-.21-.38-.33-.59l-1.59-2.58-.32-.54a6,6,0,0,0,.95.1,3.42,3.42,0,0,0,1.27-.23,1.86,1.86,0,0,0,.88-.72,2,2,0,0,0,.31-1.08,1.89,1.89,0,0,0-.09-.6,1.16,1.16,0,0,0-.32-.47,1.65,1.65,0,0,0-.42-.27,2,2,0,0,0-.53-.12,4.86,4.86,0,0,0-.69-.05l-1,0h-.82c-.14,3.13-.23,6-.26,8.65l-.69,0Z" style="fill:#afafaf"/><path d="M272.24,97.73l.15-1.3.44-5.21.21-3h1.8l.16.61c.05.16.1.35.17.57s.2.59.37,1.1l.86,2.48,1.07,3.33,1.39-3.33,1.59-3.64c.05-.13.11-.26.16-.41s.14-.39.26-.71h1.83l-.08,3.34,0,2.18c0,.21,0,.41,0,.62v2.5c0,.11,0,.41,0,.91l-.61,0-.64,0,0-.89.11-5c0-.56,0-1.19,0-1.88v-.57l-3.07,7.36-.4,1-.64,0-.67,0-.83-2.64-.86-2.6-.85-2.5c0-.11-.1-.31-.19-.6l-.09.82-.43,6c0,.2,0,.4,0,.6s0,.51,0,.91l-.58,0Z" style="fill:#afafaf"/><path d="M284.46,97.73l1.27-2.41L289,89l.37-.8H291l1.21,3.43,2.23,6.12-.66,0-.75,0c-.13-.45-.33-1.1-.63-2s-.53-1.53-.73-2.06h-3.82l-1,2.09-.89,1.92-.72,0Zm3.79-4.93h3.14l-1.3-3.7Z" style="fill:#afafaf"/><path d="M296.77,97.73l.14-2,.24-5.68,0-1.1c0-.35,0-.63,0-.82h1.68l.76,1.23,4.62,7,.3-8.2h1.24l-.16,2.45-.19,4.31-.08,2.79-.81,0-.84,0-.65-1-4.74-7.1c0,.26,0,.67-.05,1.23l-.2,4.94,0,2-.61,0Z" style="fill:#afafaf"/><path d="M316.06,96.5c-.06.34-.12.71-.17,1.1a12.53,12.53,0,0,1-2.53.28,6.2,6.2,0,0,1-2-.31,4.54,4.54,0,0,1-1.65-1,4,4,0,0,1-1-1.53,5.6,5.6,0,0,1-.32-1.89,6.11,6.11,0,0,1,.36-2.08,4.2,4.2,0,0,1,1.08-1.7,4.58,4.58,0,0,1,1.75-1,6.62,6.62,0,0,1,2.14-.35,11.52,11.52,0,0,1,2.4.26c0,.23,0,.59.08,1.08a10,10,0,0,0-1.33-.32,7.49,7.49,0,0,0-1-.08,5,5,0,0,0-1.6.26,3.75,3.75,0,0,0-1.35.81,3.62,3.62,0,0,0-.89,1.38,4.65,4.65,0,0,0-.32,1.69,5,5,0,0,0,.25,1.56,3.2,3.2,0,0,0,.76,1.24,3.47,3.47,0,0,0,1.23.77,4.4,4.4,0,0,0,1.58.27A8.7,8.7,0,0,0,316.06,96.5Z" style="fill:#afafaf"/><path d="M318.74,97.73l.18-2.63.19-4.92,0-1.07c0-.27,0-.58,0-.93h6.18c0,.32-.05.65-.06,1l-.62,0-.8,0h-1.11c-1.1,0-1.87,0-2.31,0l-.12,3.27,1.93,0,2.44,0c0,.33-.05.65-.06,1l-2.41,0-2,0-.12,3.46h.73c1.32,0,2.19,0,2.62,0l1.52-.06c0,.35-.05.67-.06,1l-2.85,0Z" style="fill:#afafaf"/><path d="M332.19,97.48c0-.45-.05-.83-.09-1.16a6.67,6.67,0,0,0,1.33.49,4.56,4.56,0,0,0,1.13.15,2.59,2.59,0,0,0,1-.18,1.5,1.5,0,0,0,.68-.5,1.3,1.3,0,0,0,.23-.75,1.39,1.39,0,0,0-.08-.46,1.49,1.49,0,0,0-.25-.43,4.5,4.5,0,0,0-.59-.6l-1.2-1-.52-.44a6.45,6.45,0,0,1-.53-.5,4,4,0,0,1-.4-.47,2.87,2.87,0,0,1-.25-.42,2.19,2.19,0,0,1-.14-.41,2.38,2.38,0,0,1,0-.46,2.06,2.06,0,0,1,.32-1.13,2.3,2.3,0,0,1,1-.84,4.15,4.15,0,0,1,1.75-.32,10.81,10.81,0,0,1,1.91.21,11,11,0,0,0,.1,1.11,6,6,0,0,0-1.95-.38,2.36,2.36,0,0,0-1,.2,1.48,1.48,0,0,0-.61.51,1.11,1.11,0,0,0-.21.64,1.26,1.26,0,0,0,.06.38A1.23,1.23,0,0,0,334,91a3.45,3.45,0,0,0,.4.49,8.85,8.85,0,0,0,.66.61c.07,0,.34.27.8.66s.8.67,1,.88a4,4,0,0,1,.5.59,2.13,2.13,0,0,1,.3.58,2.09,2.09,0,0,1,.1.67,2.27,2.27,0,0,1-.24,1,2,2,0,0,1-.69.77,3.15,3.15,0,0,1-1,.43,5.4,5.4,0,0,1-1.15.12,7,7,0,0,1-1-.07A13.73,13.73,0,0,1,332.19,97.48Z" style="fill:#afafaf"/><path d="M339.19,97.73l1.28-2.41L343.71,89l.38-.8h1.63l1.21,3.43,2.24,6.12-.67,0-.74,0q-.19-.67-.63-2c-.29-.85-.54-1.53-.74-2.06h-3.82l-1,2.09-.9,1.92-.71,0ZM343,92.8h3.15l-1.3-3.7Z" style="fill:#afafaf"/><path d="M351.47,97.73c.11-1.21.2-2.68.28-4.41s.13-3.45.14-5.14h1.39l-.22,4.43-.17,4.18h3.42l1.17-.05c0,.3-.05.63-.07,1l-2.81,0Z" style="fill:#afafaf"/><path d="M360,88.18h1.37L361,93.52l0,.65v.13a3.26,3.26,0,0,0,.29,1.51,2,2,0,0,0,.91.83,3.86,3.86,0,0,0,1.59.29,4.12,4.12,0,0,0,1.19-.17,2.65,2.65,0,0,0,.77-.39,2,2,0,0,0,.53-.6,2.67,2.67,0,0,0,.28-.78c.06-.36.12-1,.17-1.9l.13-2.25c0-.83.06-1.72.07-2.66h1.38l-.21,3.29L368,94.2a8.11,8.11,0,0,1-.21,1.48,3.08,3.08,0,0,1-.3.7,2.48,2.48,0,0,1-.45.52,3.57,3.57,0,0,1-.76.5,4.42,4.42,0,0,1-1,.33,8.22,8.22,0,0,1-1.58.15,6.42,6.42,0,0,1-1.49-.16,4.13,4.13,0,0,1-1.11-.43,2.77,2.77,0,0,1-.8-.65,2.09,2.09,0,0,1-.4-.74,3.54,3.54,0,0,1-.17-1.11c0-.44,0-.93.05-1.49s.08-1.41.14-2.53S360,88.77,360,88.18Z" style="fill:#afafaf"/><path d="M373.06,97.73l.14-2.14.19-4.44.06-2.05q-1.71,0-3,.06c0-.37,0-.7.05-1h7.26c0,.41-.05.74-.05,1q-1.08-.06-2.4-.06h-.57l-.15,3.1-.15,4.36v1.17l-.67,0Z" style="fill:#afafaf"/><path d="M379.65,97.73l.18-2.63.19-4.92,0-1.07v-.93h6.18c0,.32-.05.65-.06,1l-.62,0-.8,0h-1.11c-1.1,0-1.87,0-2.3,0l-.13,3.27,1.93,0,2.44,0c0,.33-.05.65-.06,1l-2.41,0-2,0L381,96.81h.73c1.32,0,2.19,0,2.63,0l1.51-.06c0,.35-.05.67-.06,1l-2.85,0Z" style="fill:#afafaf"/><path d="M162.58,97.48c0-.45-.05-.83-.09-1.16a6.9,6.9,0,0,0,1.33.49A4.58,4.58,0,0,0,165,97a2.58,2.58,0,0,0,1-.18,1.5,1.5,0,0,0,.68-.5,1.3,1.3,0,0,0,.23-.75,1.39,1.39,0,0,0-.08-.46,1.49,1.49,0,0,0-.25-.43,4.5,4.5,0,0,0-.59-.6l-1.2-1-.52-.44c-.19-.17-.37-.33-.53-.5a4,4,0,0,1-.4-.47,2.87,2.87,0,0,1-.25-.42,1.64,1.64,0,0,1-.13-.41,1.8,1.8,0,0,1,0-.46,2.07,2.07,0,0,1,.33-1.13,2.3,2.3,0,0,1,1-.84A4.06,4.06,0,0,1,165.9,88a10.72,10.72,0,0,1,1.91.21,11,11,0,0,0,.1,1.11A5.93,5.93,0,0,0,166,89a2.28,2.28,0,0,0-1,.2,1.51,1.51,0,0,0-.62.51,1.11,1.11,0,0,0-.21.64,1.31,1.31,0,0,0,.23.73,2.87,2.87,0,0,0,.4.49,6.89,6.89,0,0,0,.65.61c.07,0,.34.27.8.66s.81.67,1,.88a4,4,0,0,1,.5.59,2.13,2.13,0,0,1,.3.58,2.09,2.09,0,0,1,.1.67,2.27,2.27,0,0,1-.24,1,2,2,0,0,1-.69.77,3.19,3.19,0,0,1-1,.43,5.5,5.5,0,0,1-1.16.12,6.78,6.78,0,0,1-1-.07A13.28,13.28,0,0,1,162.58,97.48Z" style="fill:#afafaf"/><path d="M170.86,97.73l.12-1.59.22-5.47,0-1.18c0-.18,0-.37,0-.55v-.76h2.42l1,0a5.11,5.11,0,0,1,1.31.13,1.88,1.88,0,0,1,.76.44,2.14,2.14,0,0,1,.52.75,2.64,2.64,0,0,1,.19,1,2.88,2.88,0,0,1-.45,1.58,2.77,2.77,0,0,1-1.22,1,4.21,4.21,0,0,1-1.73.35,6,6,0,0,1-1.12-.12c-.07-.32-.15-.61-.23-.87a5.51,5.51,0,0,0,1.06.1,3.82,3.82,0,0,0,1-.11,2,2,0,0,0,.79-.39,1.71,1.71,0,0,0,.51-.67,2.11,2.11,0,0,0,.18-.86,1.59,1.59,0,0,0-.13-.66,1.07,1.07,0,0,0-.37-.48,1.44,1.44,0,0,0-.53-.25,4.75,4.75,0,0,0-.87-.06h-.58l-.74,0h-.54c-.06,1-.1,2-.12,2.78l-.1,2.88c0,1.09,0,1.82,0,2.19v.79l-.65,0Z" style="fill:#afafaf"/><path d="M184.81,88a6.11,6.11,0,0,1,2,.31,4.13,4.13,0,0,1,1.64,1,4,4,0,0,1,1,1.55,5.64,5.64,0,0,1,.3,1.87,6.24,6.24,0,0,1-.34,2.07,4.24,4.24,0,0,1-1,1.69,4.44,4.44,0,0,1-1.72,1,6.42,6.42,0,0,1-2.15.35,6.65,6.65,0,0,1-2.05-.31,4.37,4.37,0,0,1-1.68-1,3.91,3.91,0,0,1-1-1.54,5.84,5.84,0,0,1-.31-1.88,6.19,6.19,0,0,1,.37-2.1,4.42,4.42,0,0,1,2.85-2.72A7,7,0,0,1,184.81,88Zm-.07.94a4.66,4.66,0,0,0-1.59.27,3.36,3.36,0,0,0-1.31.86,3.86,3.86,0,0,0-.82,1.4,5.28,5.28,0,0,0-.27,1.68,4.71,4.71,0,0,0,.26,1.55,3.1,3.1,0,0,0,2,2,4.84,4.84,0,0,0,1.52.24,4.47,4.47,0,0,0,1.55-.26,3.07,3.07,0,0,0,1.27-.82,3.37,3.37,0,0,0,.8-1.36,5.41,5.41,0,0,0,.26-1.67,5.1,5.1,0,0,0-.24-1.57,3.13,3.13,0,0,0-2-2.06A4.61,4.61,0,0,0,184.74,89Z" style="fill:#afafaf"/><path d="M192.32,97.73l.14-1.88.16-3.48.06-2.93c0-.59,0-1,0-1.26h2.44l1,0a6.22,6.22,0,0,1,1.19.1,2.16,2.16,0,0,1,1,.41,2,2,0,0,1,.62.76,2.3,2.3,0,0,1,.2,1,2.84,2.84,0,0,1-.16,1,2.73,2.73,0,0,1-.46.81,2.42,2.42,0,0,1-.72.59,3.45,3.45,0,0,1-.81.29c-.21,0-.51.09-.88.13l1.23,2,1.27,2c.09.13.22.34.39.61l-.73,0-.74,0-.5-1-.31-.55-.34-.59-1.58-2.58c-.07-.11-.18-.28-.33-.54a6,6,0,0,0,1,.1,3.42,3.42,0,0,0,1.27-.23,1.93,1.93,0,0,0,.89-.72,2.05,2.05,0,0,0,.31-1.08,1.89,1.89,0,0,0-.1-.6,1.25,1.25,0,0,0-.31-.47,1.65,1.65,0,0,0-.42-.27,2.19,2.19,0,0,0-.53-.12,5.09,5.09,0,0,0-.69-.05l-1,0H194c-.15,3.13-.24,6-.27,8.65l-.69,0Z" style="fill:#afafaf"/><path d="M203.46,97.73l.13-2.14.19-4.44.07-2.05q-1.71,0-3,.06c0-.37,0-.7.05-1h7.26c0,.41,0,.74,0,1-.73,0-1.52-.06-2.4-.06h-.58L205,92.2l-.15,4.36v1.17l-.67,0Z" style="fill:#afafaf"/><path d="M214.71,97.73l.12-1.59.22-5.47,0-1.18c0-.18,0-.37,0-.55v-.76h2.43l1,0a5.26,5.26,0,0,1,1.32.13,1.91,1.91,0,0,1,.75.44,2,2,0,0,1,.52.75,2.46,2.46,0,0,1,.19,1,2.88,2.88,0,0,1-.45,1.58,2.71,2.71,0,0,1-1.22,1,4.16,4.16,0,0,1-1.72.35,5.86,5.86,0,0,1-1.12-.12,7.7,7.7,0,0,0-.24-.87,5.58,5.58,0,0,0,1.06.1,3.85,3.85,0,0,0,1-.11,2,2,0,0,0,.78-.39,1.71,1.71,0,0,0,.51-.67,2.11,2.11,0,0,0,.18-.86,1.59,1.59,0,0,0-.13-.66,1.07,1.07,0,0,0-.37-.48,1.37,1.37,0,0,0-.53-.25,4.62,4.62,0,0,0-.86-.06h-.59l-.73,0h-.55c-.05,1-.09,2-.12,2.78l-.09,2.88c0,1.09-.05,1.82-.05,2.19v.79l-.66,0Z" style="fill:#afafaf"/><path d="M223.57,97.73l.17-2.63.2-4.92,0-1.07c0-.27,0-.58,0-.93h6.18c0,.32-.05.65-.06,1l-.63,0-.79,0h-1.12c-1.1,0-1.86,0-2.3,0l-.12,3.27,1.93,0,2.44,0c0,.33-.06.65-.06,1l-2.41,0-2,0-.13,3.46h.73c1.32,0,2.2,0,2.63,0l1.52-.06c0,.35-.06.67-.07,1l-2.84,0Z" style="fill:#afafaf"/><path d="M232.73,97.73l.14-1.88.16-3.48.07-2.93c0-.59,0-1,0-1.26h2.44l.95,0a6.29,6.29,0,0,1,1.19.1,2.16,2.16,0,0,1,1,.41,2,2,0,0,1,.62.76,2.3,2.3,0,0,1,.2,1,3.1,3.1,0,0,1-.16,1,2.73,2.73,0,0,1-.46.81,2.34,2.34,0,0,1-.73.59,3.21,3.21,0,0,1-.8.29c-.21,0-.51.09-.88.13l1.23,2,1.27,2c.09.13.22.34.39.61l-.73,0-.74,0-.51-1-.3-.55-.34-.59-1.59-2.58-.32-.54a6,6,0,0,0,.95.1,3.42,3.42,0,0,0,1.27-.23,1.86,1.86,0,0,0,.88-.72,2,2,0,0,0,.32-1.08,1.89,1.89,0,0,0-.1-.6,1.25,1.25,0,0,0-.31-.47,2.09,2.09,0,0,0-.42-.27,2.19,2.19,0,0,0-.53-.12,5.09,5.09,0,0,0-.69-.05l-1,0h-.82c-.14,3.13-.23,6-.26,8.65l-.69,0Z" style="fill:#afafaf"/><path d="M241.93,97.73l.09-1.28c0-.29,0-.61,0-1l.15-4.16,0-1.68c0-.35,0-.66,0-.93v-.55h5.9c0,.43-.06.76-.06,1-.59,0-1.43-.06-2.5-.06l-2.06,0-.1,3.29,1.34,0q1.9,0,2.76,0c0,.35,0,.66,0,1l-2.18,0-1.94,0c-.05,1.72-.08,3.17-.08,4.36l-.68,0Z" style="fill:#afafaf"/><path d="M255.73,88a6.11,6.11,0,0,1,2,.31,4.2,4.2,0,0,1,1.64,1,4,4,0,0,1,1,1.55,5.64,5.64,0,0,1,.3,1.87,6.24,6.24,0,0,1-.34,2.07,4.35,4.35,0,0,1-1,1.69,4.44,4.44,0,0,1-1.72,1,6.46,6.46,0,0,1-2.15.35,6.72,6.72,0,0,1-2.06-.31,4.4,4.4,0,0,1-1.67-1,3.81,3.81,0,0,1-1-1.54,5.58,5.58,0,0,1-.31-1.88,6,6,0,0,1,.37-2.1,4.42,4.42,0,0,1,2.85-2.72A6.9,6.9,0,0,1,255.73,88Zm-.08.94a4.66,4.66,0,0,0-1.59.27,3.4,3.4,0,0,0-1.3.86,3.89,3.89,0,0,0-.83,1.4,5.57,5.57,0,0,0-.26,1.68,4.47,4.47,0,0,0,.26,1.55,3.32,3.32,0,0,0,.78,1.25,3.25,3.25,0,0,0,1.25.73,4.79,4.79,0,0,0,1.52.24,4.47,4.47,0,0,0,1.55-.26,3.13,3.13,0,0,0,1.27-.82,3.35,3.35,0,0,0,.79-1.36,5.12,5.12,0,0,0,.26-1.67,5.42,5.42,0,0,0-.23-1.57,3.22,3.22,0,0,0-.75-1.28,3,3,0,0,0-1.22-.78A4.62,4.62,0,0,0,255.65,89Z" style="fill:#afafaf"/><path d="M263.23,97.73l.14-1.88.16-3.48.07-2.93c0-.59,0-1,0-1.26h2.44l.95,0a6.29,6.29,0,0,1,1.19.1,2.17,2.17,0,0,1,1.58,1.17,2.3,2.3,0,0,1,.2,1,3.1,3.1,0,0,1-.16,1,3,3,0,0,1-.46.81,2.6,2.6,0,0,1-.73.59,3.21,3.21,0,0,1-.8.29c-.22,0-.51.09-.88.13l1.23,2,1.27,2c.09.13.22.34.39.61l-.73,0-.74,0-.51-1c-.1-.19-.2-.37-.31-.55s-.21-.38-.33-.59l-1.59-2.58-.32-.54a6,6,0,0,0,.95.1,3.42,3.42,0,0,0,1.27-.23,1.86,1.86,0,0,0,.88-.72,2,2,0,0,0,.31-1.08,1.89,1.89,0,0,0-.09-.6,1.16,1.16,0,0,0-.32-.47,1.65,1.65,0,0,0-.42-.27,2,2,0,0,0-.53-.12,4.86,4.86,0,0,0-.69-.05l-1,0h-.82c-.14,3.13-.23,6-.26,8.65l-.69,0Z" style="fill:#afafaf"/><path d="M272.24,97.73l.15-1.3.44-5.21.21-3h1.8l.16.61c.05.16.1.35.17.57s.2.59.37,1.1l.86,2.48,1.07,3.33,1.39-3.33,1.59-3.64c.05-.13.11-.26.16-.41s.14-.39.26-.71h1.83l-.08,3.34,0,2.18c0,.21,0,.41,0,.62v2.5c0,.11,0,.41,0,.91l-.61,0-.64,0,0-.89.11-5c0-.56,0-1.19,0-1.88v-.57l-3.07,7.36-.4,1-.64,0-.67,0-.83-2.64-.86-2.6-.85-2.5c0-.11-.1-.31-.19-.6l-.09.82-.43,6c0,.2,0,.4,0,.6s0,.51,0,.91l-.58,0Z" style="fill:#afafaf"/><path d="M284.46,97.73l1.27-2.41L289,89l.37-.8H291l1.21,3.43,2.23,6.12-.66,0-.75,0c-.13-.45-.33-1.1-.63-2s-.53-1.53-.73-2.06h-3.82l-1,2.09-.89,1.92-.72,0Zm3.79-4.93h3.14l-1.3-3.7Z" style="fill:#afafaf"/><path d="M296.77,97.73l.14-2,.24-5.68,0-1.1c0-.35,0-.63,0-.82h1.68l.76,1.23,4.62,7,.3-8.2h1.24l-.16,2.45-.19,4.31-.08,2.79-.81,0-.84,0-.65-1-4.74-7.1c0,.26,0,.67-.05,1.23l-.2,4.94,0,2-.61,0Z" style="fill:#afafaf"/><path d="M316.06,96.5c-.06.34-.12.71-.17,1.1a12.53,12.53,0,0,1-2.53.28,6.2,6.2,0,0,1-2-.31,4.54,4.54,0,0,1-1.65-1,4,4,0,0,1-1-1.53,5.6,5.6,0,0,1-.32-1.89,6.11,6.11,0,0,1,.36-2.08,4.2,4.2,0,0,1,1.08-1.7,4.58,4.58,0,0,1,1.75-1,6.62,6.62,0,0,1,2.14-.35,11.52,11.52,0,0,1,2.4.26c0,.23,0,.59.08,1.08a10,10,0,0,0-1.33-.32,7.49,7.49,0,0,0-1-.08,5,5,0,0,0-1.6.26,3.75,3.75,0,0,0-1.35.81,3.62,3.62,0,0,0-.89,1.38,4.65,4.65,0,0,0-.32,1.69,5,5,0,0,0,.25,1.56,3.2,3.2,0,0,0,.76,1.24,3.47,3.47,0,0,0,1.23.77,4.4,4.4,0,0,0,1.58.27A8.7,8.7,0,0,0,316.06,96.5Z" style="fill:#afafaf"/><path d="M318.74,97.73l.18-2.63.19-4.92,0-1.07c0-.27,0-.58,0-.93h6.18c0,.32-.05.65-.06,1l-.62,0-.8,0h-1.11c-1.1,0-1.87,0-2.31,0l-.12,3.27,1.93,0,2.44,0c0,.33-.05.65-.06,1l-2.41,0-2,0-.12,3.46h.73c1.32,0,2.19,0,2.62,0l1.52-.06c0,.35-.05.67-.06,1l-2.85,0Z" style="fill:#afafaf"/><path d="M332.19,97.48c0-.45-.05-.83-.09-1.16a6.67,6.67,0,0,0,1.33.49,4.56,4.56,0,0,0,1.13.15,2.59,2.59,0,0,0,1-.18,1.5,1.5,0,0,0,.68-.5,1.3,1.3,0,0,0,.23-.75,1.39,1.39,0,0,0-.08-.46,1.49,1.49,0,0,0-.25-.43,4.5,4.5,0,0,0-.59-.6l-1.2-1-.52-.44a6.45,6.45,0,0,1-.53-.5,4,4,0,0,1-.4-.47,2.87,2.87,0,0,1-.25-.42,2.19,2.19,0,0,1-.14-.41,2.38,2.38,0,0,1,0-.46,2.06,2.06,0,0,1,.32-1.13,2.3,2.3,0,0,1,1-.84,4.15,4.15,0,0,1,1.75-.32,10.81,10.81,0,0,1,1.91.21,11,11,0,0,0,.1,1.11,6,6,0,0,0-1.95-.38,2.36,2.36,0,0,0-1,.2,1.48,1.48,0,0,0-.61.51,1.11,1.11,0,0,0-.21.64,1.26,1.26,0,0,0,.06.38A1.23,1.23,0,0,0,334,91a3.45,3.45,0,0,0,.4.49,8.85,8.85,0,0,0,.66.61c.07,0,.34.27.8.66s.8.67,1,.88a4,4,0,0,1,.5.59,2.13,2.13,0,0,1,.3.58,2.09,2.09,0,0,1,.1.67,2.27,2.27,0,0,1-.24,1,2,2,0,0,1-.69.77,3.15,3.15,0,0,1-1,.43,5.4,5.4,0,0,1-1.15.12,7,7,0,0,1-1-.07A13.73,13.73,0,0,1,332.19,97.48Z" style="fill:#afafaf"/><path d="M339.19,97.73l1.28-2.41L343.71,89l.38-.8h1.63l1.21,3.43,2.24,6.12-.67,0-.74,0q-.19-.67-.63-2c-.29-.85-.54-1.53-.74-2.06h-3.82l-1,2.09-.9,1.92-.71,0ZM343,92.8h3.15l-1.3-3.7Z" style="fill:#afafaf"/><path d="M351.47,97.73c.11-1.21.2-2.68.28-4.41s.13-3.45.14-5.14h1.39l-.22,4.43-.17,4.18h3.42l1.17-.05c0,.3-.05.63-.07,1l-2.81,0Z" style="fill:#afafaf"/><path d="M360,88.18h1.37L361,93.52l0,.65v.13a3.26,3.26,0,0,0,.29,1.51,2,2,0,0,0,.91.83,3.86,3.86,0,0,0,1.59.29,4.12,4.12,0,0,0,1.19-.17,2.65,2.65,0,0,0,.77-.39,2,2,0,0,0,.53-.6,2.67,2.67,0,0,0,.28-.78c.06-.36.12-1,.17-1.9l.13-2.25c0-.83.06-1.72.07-2.66h1.38l-.21,3.29L368,94.2a8.11,8.11,0,0,1-.21,1.48,3.08,3.08,0,0,1-.3.7,2.48,2.48,0,0,1-.45.52,3.57,3.57,0,0,1-.76.5,4.42,4.42,0,0,1-1,.33,8.22,8.22,0,0,1-1.58.15,6.42,6.42,0,0,1-1.49-.16,4.13,4.13,0,0,1-1.11-.43,2.77,2.77,0,0,1-.8-.65,2.09,2.09,0,0,1-.4-.74,3.54,3.54,0,0,1-.17-1.11c0-.44,0-.93.05-1.49s.08-1.41.14-2.53S360,88.77,360,88.18Z" style="fill:#afafaf"/><path d="M373.06,97.73l.14-2.14.19-4.44.06-2.05q-1.71,0-3,.06c0-.37,0-.7.05-1h7.26c0,.41-.05.74-.05,1q-1.08-.06-2.4-.06h-.57l-.15,3.1-.15,4.36v1.17l-.67,0Z" style="fill:#afafaf"/><path d="M379.65,97.73l.18-2.63.19-4.92,0-1.07v-.93h6.18c0,.32-.05.65-.06,1l-.62,0-.8,0h-1.11c-1.1,0-1.87,0-2.3,0l-.13,3.27,1.93,0,2.44,0c0,.33-.05.65-.06,1l-2.41,0-2,0L381,96.81h.73c1.32,0,2.19,0,2.63,0l1.51-.06c0,.35-.05.67-.06,1l-2.85,0Z" style="fill:#afafaf"/><line x1="94.57" y1="77.42" x2="452.56" y2="77.42" style="fill:none;stroke:#004a87;stroke-miterlimit:10"/><polygon points="34.37 98.22 76.44 38.87 19.04 76.59 34.37 98.22" style="fill:#004a87"/><circle cx="62.72" cy="39.17" r="3.14" style="fill:#004a87"/><circle cx="45.72" cy="4.62" r="3.09" style="fill:#0a5e97"/><circle cx="15" cy="18.98" r="3.04" style="fill:#6f9ed4"/><circle cx="15" cy="18.98" r="3.04" style="fill:url(#linear-gradient-7)"/><polygon points="9.4 62.99 58.75 0 19.04 76.59 9.4 62.99" style="fill:#0669b2;opacity:0.67"/><line x1="34.37" y1="98.22" x2="34.37" y2="46.97" style="fill:url(#linear-gradient-8)"/><polygon points="9.4 62.99 58.75 0 34.37 98.22 9.4 62.99" style="fill:#0669b2"/><polygon points="76.44 38.87 39.44 77.79 34.37 98.22 76.44 38.87" style="fill:url(#linear-gradient-9)"/><circle cx="62.72" cy="39.17" r="3.14" style="fill:url(#linear-gradient-10)"/><circle cx="45.72" cy="4.62" r="3.09" style="fill:url(#linear-gradient-11)"/><polygon points="58.75 0 9.4 62.99 21.42 79.95 58.75 0" style="fill:url(#Sfumatura_senza_nome_29)"/><polygon points="0 13.79 34.37 98.22 34.37 52.23 0 13.79" style="fill:#6f9ed4"/><polygon points="0 13.79 34.37 98.22 34.37 66.52 0 13.79" style="fill:url(#linear-gradient-12)"/><polygon points="0 13.79 34.37 52.23 34.37 66.52 0 13.79" style="fill:url(#linear-gradient-13)"/><polygon points="58.75 0 34.37 52.23 34.37 98.22 58.75 0" style="fill:url(#linear-gradient-14)"/><polygon points="43.77 60.34 39.44 77.79 76.44 38.87 43.77 60.34" style="fill:url(#linear-gradient-15)"/></g></g></svg>